<svg width="25" height="25" viewBox="0 0 25 25" fill="none" xmlns="http://www.w3.org/2000/svg">
<path fill-rule="evenodd" clip-rule="evenodd" d="M3.51697 10.8541C3.51697 6.25427 7.36085 2.53638 12.0104 2.53638C16.6731 2.53638 20.517 6.25427 20.517 10.8541C20.517 13.1721 19.674 15.324 18.2865 17.148C16.7558 19.1599 14.8691 20.9128 12.7455 22.2888C12.2595 22.6068 11.8208 22.6308 11.2874 22.2888C9.1517 20.9128 7.26505 19.1599 5.74747 17.148C4.35895 15.324 3.51697 13.1721 3.51697 10.8541ZM9.2112 11.1131C9.2112 12.6541 10.4686 13.866 12.0104 13.866C13.5532 13.866 14.8227 12.6541 14.8227 11.1131C14.8227 9.58417 13.5532 8.31321 12.0104 8.31321C10.4686 8.31321 9.2112 9.58417 9.2112 11.1131Z" fill="#FF862E"/>
</svg>
