<svg width="313" height="155" viewBox="0 0 313 155" fill="none" xmlns="http://www.w3.org/2000/svg">
<path d="M285.962 121.982C258.536 90.3102 232.19 57.5533 204.116 26.5319C200.013 30.0029 196.558 34.3415 193.319 38.6802C190.943 41.2834 188.568 43.6696 185.976 46.2728C184.897 47.1405 182.953 49.0929 181.873 49.9607C168.7 35.86 157.039 20.2409 143.866 6.14025C142.138 4.18786 140.41 2.23546 138.683 0.5C131.556 6.35718 126.157 13.9498 120.111 20.6747C109.529 31.9552 99.1634 43.4527 89.4455 55.384C85.3424 59.5057 81.2393 63.6274 76.9202 67.5322C52.7335 97.4689 25.5235 125.019 0.688965 154.305C16.0216 153.871 31.3542 154.088 46.6869 154.088C49.0623 151.051 51.6538 148.014 54.0293 144.977C72.6012 124.802 90.7412 104.194 109.097 84.0191C119.031 73.3894 127.453 60.8073 138.683 51.4792C147.753 60.1565 154.879 70.5693 163.517 79.4635C169.132 86.1884 174.315 93.5641 180.362 99.8552L197.854 81.4159C199.797 79.6805 201.741 77.945 203.684 76.2095C219.881 94.4319 235.214 113.522 251.194 131.961C257.673 139.12 262.855 147.58 270.63 153.221C284.451 154.305 298.704 152.353 312.525 154.739C304.966 143.025 294.816 133.046 285.962 121.982Z" fill="#BFBCBC"/>
</svg>
