<svg width="17" height="17" viewBox="0 0 17 17" fill="none" xmlns="http://www.w3.org/2000/svg">
<path d="M9.70277 3.73154C9.38541 3.67291 9.09394 3.87544 9.03353 4.18522C8.97311 4.49501 9.17627 4.79747 9.485 4.8581C10.4145 5.0393 11.1322 5.75881 11.3141 6.6915V6.69217C11.3659 6.96065 11.6023 7.15585 11.8745 7.15585C11.911 7.15585 11.9475 7.15252 11.9847 7.14586C12.2934 7.0839 12.4966 6.78211 12.4362 6.47165C12.1646 5.07861 11.0924 4.00268 9.70277 3.73154Z" fill="#FF862E"/>
<path d="M9.66127 1.41032C9.51255 1.389 9.36317 1.43297 9.24432 1.52757C9.12216 1.6235 9.04581 1.76207 9.02921 1.9173C8.99402 2.23109 9.22042 2.51489 9.5338 2.5502C11.6949 2.79137 13.3747 4.47488 13.6177 6.64272C13.6502 6.93319 13.8939 7.15237 14.1847 7.15237C14.2066 7.15237 14.2278 7.15104 14.2497 7.14838C14.4018 7.13172 14.5372 7.05644 14.6328 6.93652C14.7278 6.8166 14.7709 6.66737 14.7537 6.51481C14.4509 3.81 12.3575 1.71078 9.66127 1.41032Z" fill="#FF862E"/>
<path fill-rule="evenodd" clip-rule="evenodd" d="M7.44508 8.72004C10.1045 11.3787 10.7078 8.30292 12.401 9.99499C14.0334 11.6269 14.9717 11.9539 12.9034 14.0216C12.6443 14.2298 10.9983 16.7346 5.21366 10.9516C-0.571733 5.16778 1.93164 3.52007 2.1399 3.26108C4.21316 1.18767 4.53449 2.13137 6.16691 3.76333C7.86016 5.45611 4.78569 6.06139 7.44508 8.72004Z" fill="#FF862E"/>
</svg>
