<svg width="41" height="40" viewBox="0 0 41 40" fill="none" xmlns="http://www.w3.org/2000/svg">
<path d="M19.8725 34.0569C17.8719 32.4064 16.2694 30.326 15.1843 27.9704C14.6941 28.0246 14.2003 27.9075 13.7866 27.639C13.3729 27.3706 13.0648 26.9672 12.9146 26.4975C12.7644 26.0277 12.7813 25.5205 12.9626 25.0618C13.1438 24.6031 13.4781 24.2212 13.9088 23.981C13.3096 20.8104 13.6077 17.5354 14.7695 14.5251C14.5442 14.3376 14.3603 14.1054 14.2294 13.8432C14.0985 13.5809 14.0234 13.2944 14.009 13.0016C13.6068 12.972 13.2029 12.9561 12.8025 12.9561C10.9156 12.9536 9.04292 13.2828 7.26996 13.9286C6.29899 15.8597 5.79441 17.9915 5.79676 20.1529C5.79676 27.8208 12.0351 34.0591 19.703 34.0591C19.7597 34.0591 19.816 34.0576 19.8725 34.0569Z" fill="white"/>
<path d="M21.3766 6.34885C18.8068 6.03517 16.2004 6.44646 13.8521 7.53627C11.5038 8.62607 9.50704 10.3509 8.08752 12.516C9.62141 12.081 11.2082 11.861 12.8026 11.8623C13.2783 11.8623 13.7586 11.8825 14.2358 11.9217C14.4607 11.4752 14.8353 11.122 15.2941 10.9238C15.753 10.7256 16.267 10.695 16.7461 10.8373C17.9971 9.06623 19.5674 7.54405 21.3766 6.34885Z" fill="white"/>
<path d="M28.128 23.9945C27.3404 21.6424 26.0229 19.5026 24.2772 17.7404C22.5314 15.9782 20.4041 14.6407 18.0594 13.8312C17.8547 14.2477 17.5197 14.586 17.1054 14.795C16.691 15.004 16.2198 15.0721 15.7632 14.9891C15.0579 16.8307 14.6979 18.7864 14.7012 20.7584C14.7011 21.7487 14.7916 22.737 14.9717 23.7108C15.421 23.715 15.8575 23.8609 16.219 24.1275C16.5806 24.3942 16.8488 24.7681 16.9856 25.1961C17.1223 25.624 17.1206 26.0842 16.9806 26.5111C16.8407 26.9381 16.5697 27.31 16.2061 27.5739C17.3936 30.122 19.2249 32.3163 21.5194 33.9405C24.2551 33.5804 26.8209 32.4118 28.8883 30.5844C28.932 30.0965 28.9544 29.6017 28.9544 29.1132C28.9544 28.7338 28.9402 28.352 28.9138 27.9726C28.4687 27.9161 28.0526 27.721 27.7246 27.4148C27.3967 27.1086 27.1734 26.707 27.0865 26.2668C26.9995 25.8266 27.0534 25.3702 27.2404 24.9624C27.4274 24.5545 27.738 24.2159 28.1282 23.9945L28.128 23.9945Z" fill="white"/>
<path d="M34.515 7.33773C33.5913 6.43812 32.3529 5.93469 31.0635 5.93469C29.7741 5.93469 28.5357 6.43812 27.612 7.33773C26.727 8.20595 26.1913 9.36859 26.1062 10.6054C26.0633 11.2736 26.1641 11.9432 26.4017 12.5691C26.6576 13.2315 27.0466 13.8343 27.5446 14.3404L31.0635 18.0134L34.5824 14.3404C35.0805 13.8343 35.4695 13.2315 35.7254 12.5692C35.9631 11.9433 36.0638 11.2736 36.0208 10.6055C35.9357 9.36864 35.4 8.20597 34.515 7.33773ZM31.0635 13.4506C30.48 13.4536 29.9087 13.2833 29.422 12.9612C28.9354 12.6392 28.5553 12.1799 28.3299 11.6416C28.1045 11.1033 28.044 10.5102 28.156 9.93753C28.268 9.36482 28.5476 8.83825 28.9591 8.42455C29.3707 8.01086 29.8959 7.72866 30.468 7.61371C31.0401 7.49877 31.6335 7.55625 32.1729 7.77888C32.7124 8.00151 33.1736 8.37926 33.4981 8.86427C33.8226 9.34928 33.9959 9.91971 33.9959 10.5033C33.997 11.2827 33.6889 12.0307 33.1391 12.5833C32.5894 13.1358 31.843 13.4477 31.0635 13.4506Z" fill="white"/>
<path d="M31.4585 19.1821C31.4074 19.2354 31.3461 19.2778 31.2782 19.3068C31.2104 19.3358 31.1373 19.3507 31.0635 19.3507C30.9897 19.3507 30.9167 19.3358 30.8488 19.3068C30.781 19.2778 30.7197 19.2354 30.6686 19.1821L26.7546 15.0969C26.1532 14.4833 25.6841 13.7529 25.3764 12.9507C25.0844 12.1792 24.961 11.3541 25.0148 10.5309C25.0834 9.53194 25.395 8.56487 25.9227 7.71387C24.9101 7.20758 23.8393 6.82714 22.7342 6.58105L22.825 6.73918C20.7956 7.90794 19.0417 9.49989 17.6824 11.4068C18.0316 11.771 18.2413 12.2466 18.2747 12.75C20.8208 13.604 23.1327 15.0397 25.0269 16.9433C26.9211 18.8468 28.3455 21.1658 29.1869 23.716C29.681 23.7167 30.1596 23.8886 30.5412 24.2025C30.9227 24.5165 31.1837 24.953 31.2796 25.4377C31.3755 25.9224 31.3004 26.4253 31.0671 26.8609C30.8338 27.2965 30.4568 27.6377 30.0002 27.8265C30.0314 28.2543 30.0479 28.6853 30.0479 29.1132C30.0479 29.2218 30.0463 29.3308 30.0442 29.4398C31.51 27.8095 32.5695 25.8557 33.1364 23.7379C33.7032 21.6201 33.7614 19.3983 33.306 17.2537L31.4585 19.1821Z" fill="white"/>
<path d="M31.0636 8.6496C30.6963 8.64661 30.3365 8.75278 30.0296 8.95465C29.7228 9.15651 29.4829 9.44496 29.3403 9.78341C29.1977 10.1219 29.1588 10.495 29.2286 10.8556C29.2984 11.2162 29.4738 11.5479 29.7324 11.8086C29.9911 12.0694 30.3213 12.2474 30.6813 12.3202C31.0413 12.3929 31.4148 12.3571 31.7544 12.2172C32.094 12.0774 32.3844 11.8398 32.5887 11.5346C32.7931 11.2294 32.9022 10.8705 32.9022 10.5032C32.9036 10.0137 32.7108 9.54371 32.3661 9.19622C32.0215 8.84872 31.553 8.65214 31.0636 8.6496Z" fill="white"/>
</svg>
