<svg width="37" height="37" viewBox="0 0 37 37" fill="none" xmlns="http://www.w3.org/2000/svg">
<path d="M5.453 32.0806H4.328C3.70668 32.0806 3.203 31.5769 3.203 30.9556V23.0806C3.203 22.4592 3.70668 21.9556 4.328 21.9556H5.453C6.07432 21.9556 6.578 22.4592 6.578 23.0806V30.9556C6.578 31.5769 6.07432 32.0806 5.453 32.0806Z" fill="white"/>
<path d="M34.5048 24.1221C34.0489 23.2113 32.9657 22.8306 32.0329 23.2531L23.4216 27.3294C23.2643 28.7321 22.0851 29.8306 20.6405 29.8306H17.2655C16.9546 29.8306 16.703 29.579 16.703 29.2681C16.703 28.9572 16.9546 28.7056 17.2655 28.7056H20.6405C21.571 28.7056 22.328 27.9486 22.328 27.0181C22.328 26.0875 21.571 25.3306 20.6405 25.3306H15.2491L12.7989 23.5208C12.4119 23.2348 11.9433 23.0806 11.4621 23.0806H7.703V30.9556H10.0369L15.6435 33.5643C16.6834 34.0795 17.7957 34.3317 18.8938 34.3317C22.3104 34.3317 33.7633 26.594 33.7633 26.594C34.6235 26.0969 34.9487 25.0114 34.5048 24.1221Z" fill="white"/>
<path d="M24.578 2.83057H4.328C3.70666 2.83057 3.203 3.33422 3.203 3.95557V16.3306C3.203 16.9518 3.70666 17.4556 4.328 17.4556H6.578C6.578 15.5945 8.09192 14.0806 9.953 14.0806C11.8141 14.0806 13.328 15.5945 13.328 17.4556H24.578C25.1993 17.4556 25.703 16.9518 25.703 16.3306V3.95557C25.703 3.33422 25.1993 2.83057 24.578 2.83057Z" fill="white"/>
<path d="M26.828 6.20557H31.8509C32.2271 6.20557 32.5783 6.39355 32.787 6.70653L34.703 9.58057H26.828V6.20557Z" fill="white"/>
<path d="M9.953 19.7056C11.1956 19.7056 12.203 18.6982 12.203 17.4556C12.203 16.2129 11.1956 15.2056 9.953 15.2056C8.71036 15.2056 7.703 16.2129 7.703 17.4556C7.703 18.6982 8.71036 19.7056 9.953 19.7056Z" fill="white"/>
<path d="M26.828 10.7056V14.9584C27.4265 14.4187 28.2105 14.0806 29.078 14.0806C30.9391 14.0806 32.453 15.5945 32.453 17.4556H33.578C34.1993 17.4556 34.703 16.9519 34.703 16.3306V10.7056H26.828Z" fill="white"/>
<path d="M29.078 19.7056C30.3206 19.7056 31.328 18.6982 31.328 17.4556C31.328 16.2129 30.3206 15.2056 29.078 15.2056C27.8354 15.2056 26.828 16.2129 26.828 17.4556C26.828 18.6982 27.8354 19.7056 29.078 19.7056Z" fill="white"/>
</svg>
