<svg width="130" height="63" viewBox="0 0 130 63" fill="none" xmlns="http://www.w3.org/2000/svg">
<g clip-path="url(#clip0_25_66)">
<path d="M82.5721 19.4152C78.3213 14.5063 74.2379 9.42928 69.8867 4.62126C69.2508 5.15922 68.7152 5.83167 68.2132 6.50412C67.845 6.90759 67.4768 7.27744 67.0752 7.68091C66.9078 7.8154 66.6066 8.118 66.4392 8.25249C64.3975 6.06703 62.5901 3.6462 60.5484 1.46073C60.2806 1.15813 60.0129 0.855528 59.7451 0.586548C58.6406 1.49436 57.8038 2.67115 56.8666 3.71345C55.2266 5.46182 53.62 7.24382 52.1138 9.09306C51.4779 9.73188 50.8419 10.3707 50.1725 10.9759C46.4238 15.6158 42.2065 19.8859 38.3574 24.4249C40.7338 24.3577 43.1102 24.3913 45.4866 24.3913C45.8548 23.9206 46.2564 23.4499 46.6246 22.9792C49.5031 19.8523 52.3146 16.6581 55.1596 13.5312C56.6993 11.8837 58.0046 9.93362 59.7451 8.48785C61.1509 9.83275 62.2554 11.4466 63.5942 12.8252C64.4645 13.8675 65.2678 15.0106 66.2049 15.9857L68.9161 13.1278C69.2173 12.8588 69.5185 12.5898 69.8198 12.3208C72.3301 15.1451 74.7065 18.1039 77.1833 20.9618C78.1874 22.0714 78.9907 23.3826 80.1957 24.2568C82.3378 24.4249 84.5469 24.1223 86.689 24.4922C85.5175 22.6766 83.9444 21.1299 82.5721 19.4152Z" fill="#BFBCBC"/>
<path d="M26.5422 44.7666C25.7055 44.6657 24.8352 44.6657 23.9985 44.6657C22.2915 44.6994 20.5845 44.5985 18.8775 44.6994C18.1411 44.6657 17.706 45.3382 17.2374 45.7753C16.1998 47.0193 14.9949 48.1289 14.1246 49.5074C16.5011 49.6419 18.8775 49.3729 21.2539 49.6419C21.2539 51.4239 21.2874 53.1722 21.2204 54.9542C21.2874 55.5258 20.7184 55.8284 20.3502 56.0974C17.8399 57.7113 14.5932 58.1148 11.7817 57.0725C8.70239 55.9965 6.29251 53.2059 5.7235 49.9781C5.45574 47.8263 5.52268 45.5399 6.59374 43.5898C8.36769 39.9586 12.6519 37.8404 16.6015 38.7145C18.4423 39.0171 19.9485 40.1603 21.4212 41.2026C22.6931 40.0931 23.965 38.8827 24.7348 37.4033C22.5592 35.2514 19.6138 34.1419 16.6349 33.6712C12.0495 33.066 7.19621 34.5453 3.94956 37.9076C-0.903684 42.9174 -1.3388 51.4911 2.97891 56.9716C8.43463 64.1668 20.4171 64.4358 26.308 57.7113L26.6427 57.4087C26.5757 53.2059 26.7765 48.9694 26.5422 44.7666Z" fill="#BFBCBC"/>
<path d="M130 35.4531C129.967 35.1169 129.933 34.4781 129.9 34.1419C129.197 34.041 128.494 34.0074 127.791 34.041C126.82 34.041 125.85 34.0746 124.879 34.0746C118.084 34.0074 111.29 34.0074 104.462 34.0746C104.362 42.4802 104.462 50.8523 104.428 59.2579C104.428 60.1993 104.395 61.1408 104.596 62.0486C106.336 62.0822 108.077 62.1158 109.817 62.015C109.884 55.5258 109.717 49.0366 109.918 42.5811C109.817 41.3371 109.75 40.0594 109.918 38.849C112.328 38.7145 114.771 38.7481 117.214 38.8154C117.315 45.9434 117.147 54.9206 117.248 62.015H122.536C122.603 59.964 122.57 57.913 122.603 55.862C122.737 50.4488 122.57 45.0356 122.737 39.5887C122.737 39.4206 122.77 39.0507 122.77 38.8826C122.938 38.8826 123.306 38.849 123.473 38.8154C125.582 38.6809 127.724 38.8154 129.833 38.6809C130.067 37.6722 130.034 36.5627 130 35.4531Z" fill="#BFBCBC"/>
<path d="M95.291 34.1755C95.224 40.1603 95.3914 46.1451 95.224 52.1299C92.9146 49.9781 91.1406 47.3555 88.965 45.0692C86.3208 41.8414 83.5762 38.7145 80.8986 35.4868C80.43 34.9824 80.0284 34.3772 79.3924 34.041C78.2209 33.8729 77.016 34.0074 75.8111 34.1419C75.878 42.7829 75.9449 51.4575 75.7776 60.1321C75.4764 59.8295 75.2421 59.4933 75.1082 59.0898C72.6983 53.2731 70.2215 47.5236 67.7446 41.7742C66.707 39.1516 65.569 36.5627 64.431 33.9738C63.1592 34.0746 61.7534 33.7384 60.5484 34.2091C60.3476 34.6126 60.1803 35.0161 60.0129 35.4531C59.1427 37.4705 58.3059 39.5215 57.3687 41.5052C55.6283 45.8425 53.687 50.1126 51.9465 54.4163C51.5448 55.425 51.0763 56.3664 50.5407 57.3078C48.8002 55.4249 47.2941 53.3067 45.6205 51.3902C45.085 50.7178 44.4156 50.079 44.1144 49.2048C46.2899 48.1961 48.2312 46.4813 48.8337 44.0605C50.0052 40.4629 48.0304 36.5963 44.9511 34.6798C44.1478 34.4781 43.3445 34.2427 42.5078 34.1082C38.4243 33.7384 34.3409 34.0746 30.2575 33.9401C30.3914 43.3208 30.224 52.7015 30.3244 62.0822C32.0649 62.1495 33.8054 62.1158 35.5459 62.1158L35.6128 61.7796C35.9475 57.7449 35.5459 53.6766 35.8136 49.6419C36.4161 49.6082 36.9851 49.6082 37.5876 49.7427C41.1355 53.6766 44.1144 58.1148 47.6622 62.0486C49.9717 62.1158 52.3816 62.3848 54.6576 61.8805L54.5572 61.5443C55.394 59.7623 56.0968 57.8794 56.9336 56.0974C60.6489 55.7948 64.3976 56.131 68.1128 55.9293C68.8492 57.4759 69.4182 59.0562 70.0876 60.6028C70.2549 61.0399 70.4558 61.4434 70.6566 61.8805C71.1252 62.2503 71.7611 62.0822 72.2966 62.1495C75.2421 62.1495 78.154 62.0822 81.0994 62.1831C81.2333 56.131 81.0325 50.079 81.1664 43.9933C83.4424 46.1787 85.2163 48.8013 87.3919 51.054C90.4377 54.7189 93.517 58.3837 96.6633 61.9477C97.9017 62.2503 99.1736 62.1158 100.412 62.0822C100.546 52.8024 100.379 43.4889 100.512 34.1755C98.9058 33.9738 97.0984 33.9738 95.291 34.1755ZM41.8384 44.5985C39.8636 44.9683 37.8219 44.8002 35.8471 44.733C35.7802 42.8165 35.7802 40.8664 35.8471 38.9499C37.7549 38.7482 39.6962 38.7482 41.6041 38.9835C44.3152 39.387 44.5495 44.0269 41.8384 44.5985ZM60.9166 51.1885C60.3811 51.0204 59.6782 51.2221 59.31 50.7514C60.4146 48.1961 61.2848 45.5063 62.6571 43.0855C63.6277 44.9347 64.2637 46.8848 65.1674 48.7677C65.5021 49.5074 65.8368 50.2807 66.0376 51.054C64.3306 51.054 62.6236 50.9531 60.9166 51.1885Z" fill="#BFBCBC"/>
</g>
<defs>
<clipPath id="clip0_25_66">
<rect width="130" height="62" fill="white" transform="translate(0 0.586548)"/>
</clipPath>
</defs>
</svg>
