<svg width="36" height="37" viewBox="0 0 36 37" fill="none" xmlns="http://www.w3.org/2000/svg">
<g clip-path="url(#clip0_29_434)">
<path fill-rule="evenodd" clip-rule="evenodd" d="M2.13172 29.4494H2.35855C2.54414 27.5724 4.09071 26.0961 5.98784 26.0961C7.86435 26.0961 9.43154 27.5724 9.59651 29.4494H15.4941C15.6591 27.5724 17.2263 26.0961 19.1028 26.0961C20.9999 26.0961 22.5465 27.5724 22.7321 29.4494H23.1032C23.2888 27.5724 24.8354 26.0961 26.7325 26.0961C28.609 26.0961 30.1762 27.5724 30.3618 29.4494C31.3104 29.4072 32.094 28.5847 32.094 27.5935V24.4722C32.094 24.2613 31.929 24.0715 31.7228 24.0715H10.3182V15.9731C10.3182 15.7622 10.1533 15.5935 9.94707 15.5935H7.76125V20.6339C7.76125 21.7939 6.8333 22.7218 5.71977 22.7218H0.296453V27.5935C0.296453 28.6269 1.12129 29.4494 2.13172 29.4494ZM6.56523 24.4512C7.28696 24.4512 8.07056 24.5988 8.07056 24.0715C8.07056 23.5232 7.28696 23.6919 6.56523 23.6919C6.07033 23.6919 6.07033 24.4512 6.56523 24.4512ZM7.01889 15.5935H4.81245C2.31731 15.5935 0.296453 17.6814 0.296453 20.2121V21.9626H5.71977C6.42088 21.9626 7.01889 21.3721 7.01889 20.6339V15.5935Z" fill="white"/>
<path fill-rule="evenodd" clip-rule="evenodd" d="M19.1028 32.9081C20.773 32.9081 22.134 31.5162 22.134 29.8079C22.134 28.1207 20.773 26.7288 19.1028 26.7288C17.4531 26.7288 16.0921 28.1207 16.0921 29.829C16.0921 31.5162 17.4531 32.9081 19.1028 32.9081ZM19.1028 31.3474C21.0617 31.3474 21.0617 28.2895 19.1028 28.2895C17.1644 28.2895 17.1644 31.3474 19.1028 31.3474Z" fill="white"/>
<path fill-rule="evenodd" clip-rule="evenodd" d="M26.7325 32.9081C28.4028 32.9081 29.7432 31.5162 29.7432 29.8079C29.7432 28.1207 28.4028 26.7288 26.7325 26.7288C25.0622 26.7288 23.7218 28.1207 23.7218 29.829C23.7218 31.5162 25.0622 32.9081 26.7325 32.9081ZM26.7325 31.3474C28.6915 31.3474 28.6915 28.2895 26.7325 28.2895C24.7735 28.2895 24.7735 31.3474 26.7325 31.3474Z" fill="white"/>
<path fill-rule="evenodd" clip-rule="evenodd" d="M5.98781 32.9081C7.63749 32.9081 8.99847 31.5162 8.99847 29.8079C8.99847 28.1207 7.63749 26.7288 5.98781 26.7288C4.31751 26.7288 2.95653 28.1207 2.95653 29.8079C2.95653 31.5162 4.31751 32.9081 5.98781 32.9081ZM5.98781 31.3474C7.9468 31.3474 7.9468 28.2895 5.98781 28.2895C4.02882 28.2895 4.02882 31.3474 5.98781 31.3474Z" fill="white"/>
<path fill-rule="evenodd" clip-rule="evenodd" d="M28.6709 24.8941L32.5064 23.7552C32.6095 23.713 32.7126 23.6498 32.7539 23.5443L35.3727 18.5461C35.4964 18.3563 35.414 18.0821 35.2077 17.9767L20.4225 9.85714L21.2473 8.25433C21.6598 7.4951 21.3711 6.52498 20.6287 6.12428L18.2779 4.83781C16.8345 4.0364 15.6797 6.27191 17.1025 7.07331L18.0923 7.60055L13.597 16.184C13.4732 16.3738 13.5557 16.6269 13.7619 16.7535L28.4647 24.8308C28.5266 24.873 28.609 24.8941 28.6709 24.8941ZM28.3203 22.4266C28.4647 22.4266 28.609 22.3422 28.6709 22.1946L30.6093 18.525C30.8567 18.0399 30.135 17.6181 29.8875 18.1243L27.9492 21.7939C27.8048 22.0891 28.011 22.4266 28.3203 22.4266ZM24.8354 20.5074C24.9797 20.5074 25.1241 20.423 25.2066 20.2965L27.1243 16.6058C27.3924 16.1208 26.6707 15.7201 26.4026 16.2051L24.4642 19.8958C24.3199 20.17 24.5261 20.5074 24.8354 20.5074ZM21.3505 18.6093C21.5154 18.6093 21.6391 18.525 21.7216 18.3774L23.66 14.7078C23.9075 14.2227 23.1857 13.8009 22.9383 14.3071L20.9999 17.9767C20.8556 18.2719 21.0618 18.6093 21.3505 18.6093ZM17.8861 16.6902C18.0305 16.6902 18.1748 16.6058 18.2367 16.4582L20.1751 12.7886C20.4431 12.3035 19.7214 11.9028 19.4533 12.3879L17.515 16.0786C17.3706 16.3527 17.5768 16.6902 17.8861 16.6902Z" fill="white"/>
<path fill-rule="evenodd" clip-rule="evenodd" d="M14.2775 24.8941C14.4424 24.8941 17.8449 25.0206 17.8449 24.4723V23.7341C17.8449 23.0804 17.3294 22.5742 16.7108 22.5742H14.9992C14.3806 22.5742 13.8651 23.0804 13.8651 23.7341C13.8651 24.2192 13.7413 24.8941 14.2775 24.8941Z" fill="white"/>
<path fill-rule="evenodd" clip-rule="evenodd" d="M15.1436 23.4178H16.5664C16.7932 23.4178 16.9788 23.228 16.9788 22.996V17.8079C16.9788 17.0065 14.7311 16.9222 14.7311 17.0276V22.996C14.7311 23.228 14.9167 23.4178 15.1436 23.4178Z" fill="white"/>
</g>
<defs>
<clipPath id="clip0_29_434">
<rect width="35.2" height="36" fill="white" transform="matrix(-1 0 0 1 35.4552 0.788574)"/>
</clipPath>
</defs>
</svg>
